<svg width="29" height="29" viewBox="0 0 29 29" fill="none" xmlns="http://www.w3.org/2000/svg">
<path d="M19.14 14.5C19.14 15.4177 18.8679 16.3148 18.358 17.0778C17.8482 17.8409 17.1235 18.4356 16.2756 18.7868C15.4278 19.138 14.4949 19.2299 13.5948 19.0508C12.6947 18.8718 11.8679 18.4299 11.219 17.781C10.5701 17.1321 10.1282 16.3053 9.94916 15.4052C9.77012 14.5051 9.86201 13.5722 10.2132 12.7243C10.5644 11.8765 11.1591 11.1518 11.9222 10.642C12.6852 10.1321 13.5823 9.86 14.5 9.86C15.7294 9.86382 16.9074 10.3539 17.7768 11.2232C18.6461 12.0926 19.1362 13.2706 19.14 14.5V14.5ZM29 8.12V20.88C29 23.0336 28.1445 25.0989 26.6217 26.6217C25.0989 28.1445 23.0336 29 20.88 29H8.12C5.96644 29 3.90109 28.1445 2.37829 26.6217C0.855497 25.0989 0 23.0336 0 20.88V8.12C0 5.96644 0.855497 3.90109 2.37829 2.37829C3.90109 0.855497 5.96644 0 8.12 0H20.88C23.0336 0 25.0989 0.855497 26.6217 2.37829C28.1445 3.90109 29 5.96644 29 8.12V8.12ZM21.46 14.5C21.46 13.1234 21.0518 11.7778 20.287 10.6332C19.5223 9.48866 18.4352 8.59658 17.1635 8.0698C15.8917 7.54301 14.4923 7.40518 13.1422 7.67373C11.7921 7.94229 10.5519 8.60516 9.57854 9.57854C8.60516 10.5519 7.94229 11.7921 7.67373 13.1422C7.40518 14.4923 7.54301 15.8917 8.0698 17.1635C8.59658 18.4352 9.48866 19.5223 10.6332 20.287C11.7778 21.0518 13.1234 21.46 14.5 21.46C16.3459 21.46 18.1162 20.7267 19.4215 19.4215C20.7267 18.1162 21.46 16.3459 21.46 14.5ZM23.78 6.96C23.78 6.61586 23.6779 6.27945 23.4868 5.99331C23.2956 5.70717 23.0238 5.48415 22.7059 5.35245C22.3879 5.22075 22.0381 5.1863 21.7005 5.25343C21.363 5.32057 21.053 5.48629 20.8096 5.72963C20.5663 5.97298 20.4006 6.28302 20.3334 6.62054C20.2663 6.95807 20.3008 7.30793 20.4324 7.62587C20.5641 7.94381 20.7872 8.21556 21.0733 8.40676C21.3594 8.59795 21.6959 8.7 22.04 8.7C22.5015 8.7 22.9441 8.51668 23.2704 8.19037C23.5967 7.86405 23.78 7.42148 23.78 6.96Z" fill="black"/>
</svg>
