<svg width="20" height="20" viewBox="0 0 20 20" fill="none" xmlns="http://www.w3.org/2000/svg">
<path d="M10.1135 1.87478C5.54402 1.81306 1.81355 5.54353 1.87527 10.1131C1.9362 14.4955 5.50456 18.0638 9.88699 18.1248C14.4573 18.1873 18.187 14.4568 18.1245 9.88728C18.0643 5.50408 14.496 1.93572 10.1135 1.87478ZM15.0518 14.658C15.0363 14.6748 15.0172 14.688 14.996 14.6966C14.9747 14.7053 14.9519 14.7091 14.929 14.7079C14.9061 14.7067 14.8837 14.7005 14.8635 14.6897C14.8433 14.6789 14.8257 14.6638 14.812 14.6455C14.4626 14.1883 14.0347 13.797 13.5483 13.4896C12.5538 12.8513 11.2936 12.4998 10.0003 12.4998C8.70691 12.4998 7.44675 12.8513 6.45222 13.4896C5.96584 13.7968 5.53796 14.1881 5.18855 14.6451C5.17482 14.6634 5.15722 14.6786 5.13701 14.6893C5.11679 14.7001 5.09444 14.7064 5.07155 14.7075C5.04867 14.7087 5.0258 14.7049 5.00457 14.6962C4.98334 14.6876 4.96426 14.6744 4.9487 14.6576C3.80248 13.4202 3.15319 11.8034 3.12527 10.117C3.06159 6.31579 6.18074 3.13415 9.98347 3.12478C13.7862 3.1154 16.8753 6.20329 16.8753 9.99978C16.8766 11.7269 16.2253 13.3907 15.0518 14.658Z" fill="#1F1F1F"/>
<path d="M10.0003 5.62478C9.22995 5.62478 8.53347 5.91345 8.03855 6.43806C7.54363 6.96267 7.29636 7.68806 7.35222 8.46658C7.4655 9.99978 8.65339 11.2498 10.0003 11.2498C11.3471 11.2498 12.5327 9.99978 12.6483 8.46697C12.7061 7.69587 12.4608 6.97712 11.9577 6.44275C11.4608 5.9154 10.7655 5.62478 10.0003 5.62478Z" fill="#1F1F1F"/>
</svg>
